<?xml version="1.0" standalone="no"?>
<!DOCTYPE svg PUBLIC "-//W3C//DTD SVG 20010904//EN"
 "http://www.w3.org/TR/2001/REC-SVG-20010904/DTD/svg10.dtd">
<svg version="1.0" xmlns="http://www.w3.org/2000/svg"
 width="700.000000pt" height="700.000000pt" viewBox="0 0 700.000000 700.000000"
 preserveAspectRatio="xMidYMid meet">
<metadata>
Created by potrace 1.14, written by Peter Selinger 2001-2017
</metadata>
<g transform="translate(0.000000,700.000000) scale(0.100000,-0.100000)"
fill="#000000" stroke="none">
<path d="M3278 6996 c-1 -2 -41 -6 -88 -10 -47 -4 -101 -9 -120 -12 -139 -19
-252 -40 -360 -66 -69 -16 -133 -31 -143 -33 -103 -22 -422 -143 -582 -221
-179 -86 -459 -253 -554 -330 -9 -7 -52 -41 -96 -75 -342 -266 -650 -623 -875
-1014 -47 -83 -170 -327 -170 -340 0 -3 -9 -24 -20 -48 -57 -123 -157 -435
-186 -582 -2 -11 -10 -54 -19 -95 -22 -115 -30 -160 -41 -255 -26 -230 -26
-667 1 -826 2 -13 6 -46 9 -74 9 -78 22 -152 51 -285 21 -96 91 -339 114 -395
5 -11 26 -65 46 -120 64 -168 249 -531 312 -610 4 -6 34 -49 65 -95 171 -256
432 -534 708 -755 92 -74 370 -265 386 -265 4 0 15 -6 23 -14 26 -22 298 -158
408 -204 282 -116 583 -199 862 -238 25 -3 57 -8 71 -10 163 -25 682 -25 842
1 13 2 46 7 73 10 71 10 86 13 120 19 17 3 44 8 60 11 307 53 744 214 1039
384 49 28 91 51 93 51 10 0 268 180 353 247 152 119 324 280 450 422 36 41 70
79 76 85 6 6 48 61 94 121 150 197 277 405 383 628 26 53 47 99 47 102 0 2 11
28 24 57 57 127 151 421 182 573 17 81 54 301 59 350 4 33 9 71 11 85 9 46 11
524 4 605 -15 153 -21 210 -25 225 -2 8 -7 35 -10 60 -17 129 -80 384 -136
552 -349 1038 -1173 1862 -2209 2207 -174 58 -415 118 -550 136 -19 3 -46 7
-60 10 -13 2 -52 7 -86 11 -33 3 -74 8 -90 10 -33 5 -540 14 -546 10z m585
-920 c103 -15 260 -47 322 -66 77 -22 233 -74 260 -86 17 -7 68 -29 115 -49
533 -229 1019 -699 1277 -1235 131 -273 204 -520 247 -840 14 -106 15 -525 1
-600 -3 -19 -13 -78 -21 -130 -15 -96 -64 -302 -84 -356 -7 -16 -13 -36 -15
-44 -7 -33 -70 -191 -116 -287 -306 -643 -871 -1138 -1549 -1358 -119 -38
-334 -89 -430 -100 -30 -4 -66 -9 -80 -11 -14 -3 -124 -6 -245 -9 -225 -4
-380 8 -530 40 -38 8 -81 16 -95 19 -34 6 -120 30 -204 56 -492 155 -935 461
-1257 870 -283 360 -451 744 -530 1216 -31 179 -33 607 -4 764 1 8 6 35 10 60
64 409 260 851 526 1185 76 94 69 87 189 210 205 211 464 396 728 521 293 139
550 209 912 248 86 9 472 -3 573 -18z"/>
</g>
</svg>
